<?xml version="1.0"?>
<svg 
  xmlns="http://www.w3.org/2000/svg" 
  xmlns:xlink="http://www.w3.org/1999/xlink" 
  version="1.1" 
  x="0px" 
  y="0px" 
  viewBox="-.14 -6.2 101 101" 
  enable-background="new 78 61 101 101" 
  xml:space="preserve"> 
 <!-- <text x="78" y="177" fill="#000000" font-size="5px" font-weight="bold" font-family="'Helvetica Neue', Helvetica, Arial-Unicode, Arial, Sans-serif">Created by Amelia Wattenberger</text><text x="78" y="182" fill="#000000" font-size="5px" font-weight="bold" font-family="'Helvetica Neue', Helvetica, Arial-Unicode, Arial, Sans-serif">from the Noun Project</text> -->
 <g>
  <title>Layer 1</title>
  <ellipse ry="29.966309" rx="44.152832" id="svg_10" cy="46.091309" cx="49.652832" fill="#d0d0d0"/>
  <g id="svg_1">
   <!-- nose -->
   <path d="m50.40387,44.08109l0,-0.003c-0.036,0 -0.072,0.001 -0.10699,0.001c-0.03601,0 -0.07201,-0.001 -0.108,-0.001l0,0.003c-3.974,0.062 -7.182,1.85 -7.182,4.046c0,0.873 0.509,1.682 1.36999,2.343c0.003,-0.015 0.00501,-0.029 0.009,-0.044c0.14801,-0.52 0.91101,-0.644 1.704,-0.274c0.793,0.368 1.31601,1.089 1.16701,1.608c-0.00201,0.01 -0.006,0.018 -0.009,0.026c0.89699,0.232 1.893,0.37 2.942,0.387l0,0.004c0.036,0 0.072,-0.002 0.10799,-0.002c0.036,0 0.071,0.002 0.107,0.002l0,-0.004c1.05,-0.017 2.045,-0.154 2.942,-0.387c-0.003,-0.009 -0.007,-0.017 -0.01,-0.026c-0.148,-0.52 0.375,-1.239 1.16701,-1.608c0.79399,-0.369 1.557,-0.245 1.704,0.274c0.00399,0.015 0.006,0.029 0.009,0.044c0.86099,-0.661 1.36999,-1.47 1.36999,-2.343c0,-2.196 -3.20799,-3.984 -7.183,-4.046z" id="svg_2"/>
   <!-- head -->
   <path fill="#999999" d="m50.38488,7.93109l0,-0.002c-0.02901,0 -0.059,0.001 -0.088,0.001c-0.03001,0 -0.06001,-0.001 -0.089,-0.001l0,0.002c-24.723,0.08 -44.911,16.787 -44.911,38.27c0,14.65 2.02599,17.419 4.23199,18.956c1.778,1.239 37.83701,14.314 40.67901,15.344l0,0.063c0,0 0.031,-0.011 0.089,-0.031c0.05799,0.021 0.088,0.031 0.088,0.031l0,-0.063c2.841,-1.029 38.901,-14.104 40.67799,-15.344c2.206,-1.537 4.233,-4.306 4.233,-18.956c0.00101,-21.483 -20.187,-38.19 -44.911,-38.27l0.00001,0zm-41.90201,44.249c0,-3.054 5.712,-12.353 13.876,-16.36c7.163,-3.517 12.88301,0.035 14.679,3.404c3.116,5.846 -4.902,9.265 -10.94999,9.265s-17.60501,3.691 -17.60501,3.691zm41.921,17.061l0,0.004c-0.03499,0 -0.072,-0.002 -0.10699,-0.002c-0.03601,0 -0.07301,0.002 -0.108,0.002l0,-0.004c-7.069,-0.158 -18.713,-8.047 -18.713,-13.902c0,-5.874 8.277,-14.146 18.713,-14.259l0,-0.003c0.036,0 0.072,0.002 0.108,0.002c0.036,0 0.07099,-0.002 0.10699,-0.002l0,0.003c10.437,0.113 18.713,8.385 18.713,14.259c0,5.855 -11.643,13.744 -18.713,13.902zm24.101,-20.753c-6.048,0 -14.06499,-3.419 -10.95,-9.265c1.79601,-3.369 7.51601,-6.921 14.68,-3.404c8.164,4.008 13.876,13.307 13.876,16.36c-0.001,0.001 -11.559,-3.691 -17.606,-3.691z" id="svg_3"/>
   <!-- ??? -->
   <path fill="none" stroke="#000000" stroke-width="5" stroke-miterlimit="10" d="m5.29688,49.12609" id="svg_4"/>
   <!-- right outer eye -->
   <path d="m71.19288,36.96509c-2.452,0 -5.84301,1.521 -5.84301,5.143c0,2.453 3.39101,3.74 5.84301,3.74c2.453,0 4.441,-1.988 4.441,-4.441c0.001,-2.453 -1.987,-4.442 -4.441,-4.442zm-0.701,7.362c-1.612,0 -2.92,-1.308 -2.92,-2.921c0,-1.612 1.308,-2.92 2.92,-2.92c1.613,0 2.921,1.308 2.921,2.92c0,1.613 -1.307,2.921 -2.921,2.921z" id="svg_5"/>
   <!-- right inner eye -->
   <!-- mouth -->
   <path d="m66.52474,58.28719c-4.556,-4.09564 -10.505,-3.68042 -16.071,-3.43919c-0.049,0.01068 -0.102,0.01708 -0.159,0.01495c-0.03,-0.00107 -0.059,-0.00214 -0.089,-0.00427c-0.03,0.00213 -0.06,0.0032 -0.089,0.00427c-0.058,0.00213 -0.11,-0.00427 -0.159,-0.01495c-5.566,-0.2423 -11.516,-0.65645 -16.071,3.43919c-0.609,0.54864 -1.493,-0.38534 -0.879,-0.93825c4.919,-4.42334 11.175,-4.07002 17.198,-3.81598c6.023,-0.25404 12.278,-0.60629 17.198,3.81598c0.614,0.55184 -0.27,1.48582 -0.879,0.93825z" id="svg_7" fill="black"/>
   <!-- ??? -->
   <path fill="none" stroke="#000000" stroke-width="5" stroke-miterlimit="10" d="m95.29688,49.12609" id="svg_8"/>
   <!-- right outer eye -->
   <path d="m29.39988,36.96509c-2.453,0 -4.441,1.989 -4.441,4.441c0,2.453 1.988,4.441 4.441,4.441c2.453,0 5.84299,-1.287 5.84299,-3.74c0,-3.621 -3.39,-5.142 -5.843,-5.142l0.00001,0zm0.701,7.362c-1.613,0 -2.92,-1.308 -2.92,-2.921c0,-1.612 1.308,-2.92 2.92,-2.92s2.92,1.308 2.92,2.92c0,1.613 -1.307,2.921 -2.92,2.921z" id="svg_9" fill="black"/>
   <!-- right inner eye -->
   <ellipse fill="black" stroke-width="null" stroke-dasharray="null" stroke-linejoin="null" stroke-linecap="null" cx="30.12146" cy="41.405761" id="svg_11" rx="2.580689" ry="0.711914"/>
   <ellipse fill="black" stroke-width="null" stroke-dasharray="null" stroke-linejoin="null" stroke-linecap="null" cx="70.477393" cy="41.405761" rx="2.580689" ry="0.711914" id="svg_14"/>
  </g>
 </g>
</svg>