<svg 
  xmlns="http://www.w3.org/2000/svg" 
  xmlns:xlink="http://www.w3.org/1999/xlink" 
  version="1.1" 
  x="0px" 
  y="0px" 
  viewBox="78 61 101 126.25" 
  enable-background="new 78 61 101 101" 
  xml:space="preserve">
  <g>
    <!-- nose -->
    <path d="M128.607,111.335v-0.003c-0.036,0-0.072,0.001-0.107,0.001c-0.036,0-0.072-0.001-0.108-0.001v0.003   c-3.974,0.062-7.182,1.85-7.182,4.046c0,0.873,0.509,1.682,1.37,2.343c0.003-0.015,0.005-0.029,0.009-0.044   c0.148-0.52,0.911-0.644,1.704-0.274c0.793,0.368,1.316,1.089,1.167,1.608c-0.002,0.01-0.006,0.018-0.009,0.026   c0.897,0.232,1.893,0.37,2.942,0.387v0.004c0.036,0,0.072-0.002,0.108-0.002c0.036,0,0.071,0.002,0.107,0.002v-0.004   c1.05-0.017,2.045-0.154,2.942-0.387c-0.003-0.009-0.007-0.017-0.01-0.026c-0.148-0.52,0.375-1.239,1.167-1.608   c0.794-0.369,1.557-0.245,1.704,0.274c0.004,0.015,0.006,0.029,0.009,0.044c0.861-0.661,1.37-1.47,1.37-2.343   C135.79,113.185,132.582,111.397,128.607,111.335z"/>

    <!-- head -->
    <path fill="#503020" d="M128.588,75.185v-0.002c-0.029,0-0.059,0.001-0.088,0.001c-0.03,0-0.06-0.001-0.089-0.001v0.002   c-24.723,0.08-44.911,16.787-44.911,38.27c0,14.65,2.026,17.419,4.232,18.956c1.778,1.239,37.837,14.314,40.679,15.344v0.063   c0,0,0.031-0.011,0.089-0.031c0.058,0.021,0.088,0.031,0.088,0.031v-0.063c2.841-1.029,38.901-14.104,40.678-15.344   c2.206-1.537,4.233-4.306,4.233-18.956C173.5,91.972,153.312,75.265,128.588,75.185z M86.686,119.434   c0-3.054,5.712-12.353,13.876-16.36c7.163-3.517,12.883,0.035,14.679,3.404c3.116,5.846-4.902,9.265-10.95,9.265   S86.686,119.434,86.686,119.434z M128.607,136.495v0.004c-0.035,0-0.072-0.002-0.107-0.002c-0.036,0-0.073,0.002-0.108,0.002   v-0.004c-7.069-0.158-18.713-8.047-18.713-13.902c0-5.874,8.277-14.146,18.713-14.259v-0.003c0.036,0,0.072,0.002,0.108,0.002   c0.036,0,0.071-0.002,0.107-0.002v0.003c10.437,0.113,18.713,8.385,18.713,14.259C147.32,128.448,135.677,136.337,128.607,136.495z    M152.708,115.742c-6.048,0-14.065-3.419-10.95-9.265c1.796-3.369,7.516-6.921,14.68-3.404c8.164,4.008,13.876,13.307,13.876,16.36   C170.313,119.434,158.755,115.742,152.708,115.742z"/>

    <!-- ??? -->
    <path fill="none" stroke="#000000" stroke-width="5" stroke-miterlimit="10" d="M83.5,116.38"/>

    <!-- right outer eye -->
    <path d="M149.396,104.219c-2.452,0-5.843,1.521-5.843,5.143c0,2.453,3.391,3.74,5.843,3.74c2.453,0,4.441-1.988,4.441-4.441   C153.838,106.208,151.85,104.219,149.396,104.219z M148.695,111.581c-1.612,0-2.92-1.308-2.92-2.921c0-1.612,1.308-2.92,2.92-2.92   c1.613,0,2.921,1.308,2.921,2.92C151.616,110.273,150.309,111.581,148.695,111.581z"/>

    <!-- right inner eye -->
    <circle cx="148.695" cy="108.66" r="1.81"/>

    <!-- mouth -->
    <path d="M144.819,120.897c-4.556,3.837-10.505,3.448-16.071,3.222c-0.049-0.01-0.102-0.016-0.159-0.014   c-0.03,0.001-0.059,0.002-0.089,0.004c-0.03-0.002-0.06-0.003-0.089-0.004c-0.058-0.002-0.11,0.004-0.159,0.014   c-5.566,0.227-11.516,0.615-16.071-3.222c-0.609-0.514-1.493,0.361-0.879,0.879c4.919,4.144,11.175,3.813,17.198,3.575   c6.023,0.238,12.278,0.568,17.198-3.575C146.312,121.259,145.428,120.384,144.819,120.897z"/>

    <!-- ??? -->
    <path fill="none" stroke="#000000" stroke-width="5" stroke-miterlimit="10" d="M173.5,116.38"/>

    <!-- right outer eye -->
    <path d="M107.603,104.219c-2.453,0-4.441,1.989-4.441,4.441c0,2.453,1.988,4.441,4.441,4.441c2.453,0,5.843-1.287,5.843-3.74   C113.446,105.74,110.056,104.219,107.603,104.219z M108.304,111.581c-1.613,0-2.92-1.308-2.92-2.921c0-1.612,1.308-2.92,2.92-2.92   s2.92,1.308,2.92,2.92C111.224,110.273,109.917,111.581,108.304,111.581z"/>

    <!-- right inner eye -->
    <circle cx="108.304" cy="108.66" r="1.81"/>
  </g>

  <!-- <text x="78" y="177" fill="#000000" font-size="5px" font-weight="bold" font-family="'Helvetica Neue', Helvetica, Arial-Unicode, Arial, Sans-serif">Created by Amelia Wattenberger</text><text x="78" y="182" fill="#000000" font-size="5px" font-weight="bold" font-family="'Helvetica Neue', Helvetica, Arial-Unicode, Arial, Sans-serif">from the Noun Project</text> -->
</svg>