<?xml version="1.0"?>
<svg 
  xmlns="http://www.w3.org/2000/svg" 
  xmlns:xlink="http://www.w3.org/1999/xlink" 
  version="1.1" 
  x="0px" 
  y="0px" 
  viewBox="-.14 -6.2 101 101" 
  enable-background="new 78 61 101 101" 
  xml:space="preserve"> <!-- <text x="78" y="177" fill="#000000" font-size="5px" font-weight="bold" font-family="'Helvetica Neue', Helvetica, Arial-Unicode, Arial, Sans-serif">Created by Amelia Wattenberger</text><text x="78" y="182" fill="#000000" font-size="5px" font-weight="bold" font-family="'Helvetica Neue', Helvetica, Arial-Unicode, Arial, Sans-serif">from the Noun Project</text> -->
 <g>
  <title>Layer 1</title>
  <g id="svg_1">
   <!-- nose -->
   <path id="svg_2" d="m50.403875,44.081094l0,-0.003c-0.036,0 -0.072,0.001 -0.107,0.001c-0.036,0 -0.072,-0.001 -0.108,-0.001l0,0.003c-3.974,0.062 -7.182,1.85 -7.182,4.046c0,0.873 0.509,1.682 1.37,2.343c0.003,-0.015 0.005,-0.029 0.009,-0.044c0.148,-0.52 0.911,-0.644 1.704,-0.274c0.793,0.368 1.316,1.089 1.167,1.608c-0.002,0.01 -0.006,0.018 -0.009,0.026c0.897,0.232 1.893,0.37 2.942,0.387l0,0.004c0.036,0 0.072,-0.002 0.108,-0.002c0.036,0 0.071,0.002 0.107,0.002l0,-0.004c1.05,-0.017 2.045,-0.154 2.942,-0.387c-0.003,-0.009 -0.007,-0.017 -0.01,-0.026c-0.148,-0.52 0.375,-1.239 1.167,-1.608c0.794,-0.369 1.557,-0.245 1.704,0.274c0.004,0.015 0.006,0.029 0.009,0.044c0.861,-0.661 1.37,-1.47 1.37,-2.343c0,-2.196 -3.208,-3.984 -7.183,-4.046z"/>
   <!-- head -->
   <path id="svg_3" d="m50.384875,7.931094l0,-0.002c-0.029,0 -0.059,0.001 -0.088,0.001c-0.03,0 -0.06,-0.001 -0.089,-0.001l0,0.002c-24.723,0.08 -44.911,16.787 -44.911,38.27c0,14.65 2.026,17.419 4.232,18.956c1.778,1.239 37.837,14.314 40.679,15.344l0,0.063c0,0 0.031,-0.011 0.089,-0.031c0.058,0.021 0.088,0.031 0.088,0.031l0,-0.063c2.841,-1.029 38.901,-14.104 40.678,-15.344c2.206,-1.537 4.233,-4.306 4.233,-18.956c0.001,-21.483 -20.187,-38.19 -44.911,-38.27zm-41.902,44.249c0,-3.054 5.712,-12.353 13.876,-16.36c7.163,-3.517 12.883,0.035 14.679,3.404c3.116,5.846 -4.902,9.265 -10.95,9.265s-17.605,3.691 -17.605,3.691zm41.921,17.061l0,0.004c-0.035,0 -0.072,-0.002 -0.107,-0.002c-0.036,0 -0.073,0.002 -0.108,0.002l0,-0.004c-7.069,-0.158 -18.713,-8.047 -18.713,-13.902c0,-5.874 8.277,-14.146 18.713,-14.259l0,-0.003c0.036,0 0.072,0.002 0.108,0.002c0.036,0 0.071,-0.002 0.107,-0.002l0,0.003c10.437,0.113 18.713,8.385 18.713,14.259c0,5.855 -11.643,13.744 -18.713,13.902zm24.101,-20.753c-6.048,0 -14.065,-3.419 -10.95,-9.265c1.796,-3.369 7.516,-6.921 14.68,-3.404c8.164,4.008 13.876,13.307 13.876,16.36c-0.001,0.001 -11.559,-3.691 -17.606,-3.691z" fill="#999999"/>
   <!-- ??? -->
   <path id="svg_4" d="m5.296875,49.126094" stroke-miterlimit="10" stroke-width="5" stroke="#000000" fill="none"/>
   <!-- right outer eye -->
   <path id="svg_5" d="m71.192875,36.965094c-2.452,0 -5.843,1.521 -5.843,5.143c0,2.453 3.391,3.74 5.843,3.74c2.453,0 4.441,-1.988 4.441,-4.441c0.001,-2.453 -1.987,-4.442 -4.441,-4.442zm-0.701,7.362c-1.612,0 -2.92,-1.308 -2.92,-2.921c0,-1.612 1.308,-2.92 2.92,-2.92c1.613,0 2.921,1.308 2.921,2.92c0,1.613 -1.307,2.921 -2.921,2.921z"/>
   <!-- right inner eye -->
   <!-- mouth -->
   <path fill="black" id="svg_7" d="m66.524741,58.287186c-4.556,-4.095637 -10.505,-3.680416 -16.071,-3.439182c-0.049,0.010674 -0.102,0.017078 -0.159,0.014944c-0.03,-0.001067 -0.059,-0.002135 -0.089,-0.00427c-0.03,0.002135 -0.06,0.003202 -0.089,0.00427c-0.058,0.002135 -0.11,-0.00427 -0.159,-0.014944c-5.566,-0.242301 -11.516,-0.656455 -16.071,3.439182c-0.609,0.548647 -1.493,-0.385334 -0.879,-0.93825c4.919,-4.423331 11.175,-4.070019 17.198,-3.815977c6.023,-0.254043 12.278,-0.606287 17.198,3.815977c0.614,0.551849 -0.27,1.485829 -0.879,0.93825z"/>
   <!-- ??? -->
   <path id="svg_8" d="m95.296875,49.126094" stroke-miterlimit="10" stroke-width="5" stroke="#000000" fill="none"/>
   <!-- right outer eye -->
   <path fill="black" id="svg_9" d="m29.399875,36.965094c-2.453,0 -4.441,1.989 -4.441,4.441c0,2.453 1.988,4.441 4.441,4.441c2.453,0 5.843,-1.287 5.843,-3.74c0,-3.621 -3.39,-5.142 -5.843,-5.142zm0.701,7.362c-1.613,0 -2.92,-1.308 -2.92,-2.921c0,-1.612 1.308,-2.92 2.92,-2.92s2.92,1.308 2.92,2.92c0,1.613 -1.307,2.921 -2.92,2.921z"/>
   <!-- right inner eye -->
   <ellipse ry="0.711914" rx="2.580689" id="svg_11" cy="41.405761" cx="30.12146" stroke-linecap="null" stroke-linejoin="null" stroke-dasharray="null" stroke-width="null" fill="black"/>
   <ellipse id="svg_14" ry="0.711914" rx="2.580689" cy="41.405761" cx="70.477393" stroke-linecap="null" stroke-linejoin="null" stroke-dasharray="null" stroke-width="null" fill="black"/>
  </g>
 </g>
</svg>