<?xml version="1.0" encoding="UTF-8" standalone="no"?>
<svg
   xmlns:dc="http://purl.org/dc/elements/1.1/"
   xmlns:cc="http://creativecommons.org/ns#"
   xmlns:rdf="http://www.w3.org/1999/02/22-rdf-syntax-ns#"
   xmlns:svg="http://www.w3.org/2000/svg"
   xmlns="http://www.w3.org/2000/svg"
   xmlns:sodipodi="http://sodipodi.sourceforge.net/DTD/sodipodi-0.dtd"
   xmlns:inkscape="http://www.inkscape.org/namespaces/inkscape"
   version="1.1"
   x="0px"
   y="0px"
   viewBox="-.14 -6.2 101 101"
   enable-background="new 78 61 101 101"
   xml:space="preserve"
   id="svg3421"
   inkscape:version="0.91 r13725"
   sodipodi:docname="sloth-shortcut1.svg"><metadata
     id="metadata3443"><rdf:RDF><cc:Work
         rdf:about=""><dc:format>image/svg+xml</dc:format><dc:type
           rdf:resource="http://purl.org/dc/dcmitype/StillImage" /></cc:Work></rdf:RDF></metadata><defs
     id="defs3441" /><sodipodi:namedview
     pagecolor="#ffffff"
     bordercolor="#666666"
     borderopacity="1"
     objecttolerance="10"
     gridtolerance="10"
     guidetolerance="10"
     inkscape:pageopacity="0"
     inkscape:pageshadow="2"
     inkscape:window-width="1283"
     inkscape:window-height="824"
     id="namedview3439"
     showgrid="false"
     inkscape:zoom="6.8217822"
     inkscape:cx="50.5"
     inkscape:cy="50.5"
     inkscape:window-x="0"
     inkscape:window-y="203"
     inkscape:window-maximized="0"
     inkscape:current-layer="svg3421" /><!-- <text x="78" y="177" fill="#000000" font-size="5px" font-weight="bold" font-family="'Helvetica Neue', Helvetica, Arial-Unicode, Arial, Sans-serif">Created by Amelia Wattenberger</text><text x="78" y="182" fill="#000000" font-size="5px" font-weight="bold" font-family="'Helvetica Neue', Helvetica, Arial-Unicode, Arial, Sans-serif">from the Noun Project</text> --><g
     id="g3423"><title
       id="title3425">Layer 1</title><ellipse
       ry="29.966309"
       rx="44.152832"
       id="svg_10"
       cy="46.091309"
       cx="49.652832"
       fill="#999999" /><g
       id="svg_1"><!-- nose --><path
         d="m50.40387,44.08109l0,-0.003c-0.036,0 -0.072,0.001 -0.10699,0.001c-0.03601,0 -0.07201,-0.001 -0.108,-0.001l0,0.003c-3.974,0.062 -7.182,1.85 -7.182,4.046c0,0.873 0.509,1.682 1.36999,2.343c0.003,-0.015 0.00501,-0.029 0.009,-0.044c0.14801,-0.52 0.91101,-0.644 1.704,-0.274c0.793,0.368 1.31601,1.089 1.16701,1.608c-0.00201,0.01 -0.006,0.018 -0.009,0.026c0.89699,0.232 1.893,0.37 2.942,0.387l0,0.004c0.036,0 0.072,-0.002 0.10799,-0.002c0.036,0 0.071,0.002 0.107,0.002l0,-0.004c1.05,-0.017 2.045,-0.154 2.942,-0.387c-0.003,-0.009 -0.007,-0.017 -0.01,-0.026c-0.148,-0.52 0.375,-1.239 1.16701,-1.608c0.79399,-0.369 1.557,-0.245 1.704,0.274c0.00399,0.015 0.006,0.029 0.009,0.044c0.86099,-0.661 1.36999,-1.47 1.36999,-2.343c0,-2.196 -3.20799,-3.984 -7.183,-4.046z"
         id="svg_2" /><!-- head --><path
         fill="#303030"
         d="m50.38488,7.93109l0,-0.002c-0.02901,0 -0.059,0.001 -0.088,0.001c-0.03001,0 -0.06001,-0.001 -0.089,-0.001l0,0.002c-24.723,0.08 -44.911,16.787 -44.911,38.27c0,14.65 2.02599,17.419 4.23199,18.956c1.778,1.239 37.83701,14.314 40.67901,15.344l0,0.063c0,0 0.031,-0.011 0.089,-0.031c0.05799,0.021 0.088,0.031 0.088,0.031l0,-0.063c2.841,-1.029 38.901,-14.104 40.67799,-15.344c2.206,-1.537 4.233,-4.306 4.233,-18.956c0.00101,-21.483 -20.187,-38.19 -44.911,-38.27l0.00001,0zm-41.90201,44.249c0,-3.054 5.712,-12.353 13.876,-16.36c7.163,-3.517 12.88301,0.035 14.679,3.404c3.116,5.846 -4.902,9.265 -10.94999,9.265s-17.60501,3.691 -17.60501,3.691zm41.921,17.061l0,0.004c-0.03499,0 -0.072,-0.002 -0.10699,-0.002c-0.03601,0 -0.07301,0.002 -0.108,0.002l0,-0.004c-7.069,-0.158 -18.713,-8.047 -18.713,-13.902c0,-5.874 8.277,-14.146 18.713,-14.259l0,-0.003c0.036,0 0.072,0.002 0.108,0.002c0.036,0 0.07099,-0.002 0.10699,-0.002l0,0.003c10.437,0.113 18.713,8.385 18.713,14.259c0,5.855 -11.643,13.744 -18.713,13.902zm24.101,-20.753c-6.048,0 -14.06499,-3.419 -10.95,-9.265c1.79601,-3.369 7.51601,-6.921 14.68,-3.404c8.164,4.008 13.876,13.307 13.876,16.36c-0.001,0.001 -11.559,-3.691 -17.606,-3.691z"
         id="svg_3" /><!-- ??? --><path
         fill="none"
         stroke="#000000"
         stroke-width="5"
         stroke-miterlimit="10"
         d="m5.29688,49.12609"
         id="svg_4" /><!-- right outer eye --><path
         d="m71.19288,36.96509c-2.452,0 -5.84301,1.521 -5.84301,5.143c0,2.453 3.39101,3.74 5.84301,3.74c2.453,0 4.441,-1.988 4.441,-4.441c0.001,-2.453 -1.987,-4.442 -4.441,-4.442zm-0.701,7.362c-1.612,0 -2.92,-1.308 -2.92,-2.921c0,-1.612 1.308,-2.92 2.92,-2.92c1.613,0 2.921,1.308 2.921,2.92c0,1.613 -1.307,2.921 -2.921,2.921z"
         id="svg_5" /><!-- right inner eye --><!-- mouth --><path
         d="m 33.00774,57.34894 c 4.919,-4.42334 11.175,-1.871181 17.198,-1.617141 6.023,-0.25404 12.278,-2.805129 17.198,1.617141 -6.873434,8.389208 -26.661547,8.56392 -34.396,0 z"
         id="svg_7"
         inkscape:connector-curvature="0"
         style="fill:#000000"
         sodipodi:nodetypes="cccc" /><!-- ??? --><path
         fill="none"
         stroke="#000000"
         stroke-width="5"
         stroke-miterlimit="10"
         d="m95.29688,49.12609"
         id="svg_8" /><!-- right outer eye --><path
         d="m29.39988,36.96509c-2.453,0 -4.441,1.989 -4.441,4.441c0,2.453 1.988,4.441 4.441,4.441c2.453,0 5.84299,-1.287 5.84299,-3.74c0,-3.621 -3.39,-5.142 -5.843,-5.142l0.00001,0zm0.701,7.362c-1.613,0 -2.92,-1.308 -2.92,-2.921c0,-1.612 1.308,-2.92 2.92,-2.92s2.92,1.308 2.92,2.92c0,1.613 -1.307,2.921 -2.92,2.921z"
         id="svg_9"
         fill="black" /><!-- right inner eye --><circle
         id="circle3436"
         fill="#aa0000"
         r="1.81"
         cy="41.43"
         cx="30.1" /><circle
         id="svg_6"
         fill="#aa0000"
         r="1.81"
         cy="41.43"
         cx="70.5" /></g></g><path
     style="fill:#000000"
     d=""
     id="path3483"
     inkscape:connector-curvature="0"
     transform="translate(-0.14,-6.1999998)" />
     <path
     style="fill:#000000"
     d="M 34.279158,39.028893 C 33.069797,38.674985 31.251567,38.14559 30.238647,37.852461 l -1.841673,-0.532963 -1.713117,-1.94947 c -10.848464,-10.367323 -5.727948,-6.044079 4.66616,0.2368 3.220023,1.69523 5.884786,3.112435 5.921696,3.149345 0.163211,0.163211 -0.235487,0.869489 -0.503487,0.89191 -0.159626,0.01335 -1.279706,-0.265281 -2.489068,-0.61919 z"
     id="path3485"
     inkscape:connector-curvature="0"
     sodipodi:nodetypes="sscccscs" />
     <path
     sodipodi:nodetypes="sscccscs"
     inkscape:connector-curvature="0"
     id="path3507"
     d="m 66.178473,39.322072 c 1.194585,-0.353908 2.9906,-0.883303 3.991144,-1.176432 l 1.819171,-0.532963 1.692185,-1.94947 c 10.715916,-10.367323 5.657964,-6.044079 -4.609147,0.2368 -3.180681,1.69523 -5.812885,3.112435 -5.849344,3.149345 -0.161217,0.163211 0.23261,0.869489 0.497335,0.89191 0.157676,0.01335 1.264071,-0.265281 2.458656,-0.61919 z"
     style="fill:#000000" /></svg>